#!OML:ASF H:\ManfredETheater\Project 1\Capture day 1\Session 1\subject.ASF
:FULLY-SPECIFIED
:DEGREES
78
root 4.2281 23.3593 8.46393 -179.479 -23.7395 184.705
lowerback 22.7829 -0.564396 0.138294
upperback 4.40219 -1.14776 4.31499
thorax -7.78412 -0.859787 5.03788
lowerneck -9.44489 -5.42013 -7.11339
upperneck 6.23672 -6.61591 3.14474
head 3.73319 -3.29906 1.68924
rclavicle -2.72335e-014 -2.82274e-014
rhumerus -41.1227 6.86942 -62.5882
rradius 41.5154
rwrist 4.64619
rhand -21.8155 0.603313
rfingers 7.12502
rthumb 4.58689 -29.327
lclavicle -2.72335e-014 -2.82274e-014
lhumerus -10.9549 -15.2378 77.7777
lradius 53.6275
lwrist -1.82518
lhand -23.9071 -16.7557
lfingers 7.12502
lthumb 2.56708 13.2086
rfemur -61.0696 -11.4773 17.9291
rtibia 69.8257
rfoot -18.4661 -13.7939
rtoes -32.1142
lfemur -30.5987 8.07443 -21.2609
ltibia 86.0788
lfoot -1.04889 -16.2299
ltoes -15.4974
79
root 4.23043 23.5 8.07176 -179.915 -23.9362 185.509
lowerback 23.2541 -0.535859 0.609117
upperback 4.52516 -1.02405 4.41778
thorax -7.90888 -0.827763 4.86297
lowerneck -9.23704 -5.53286 -7.2084
upperneck 6.18615 -6.78645 3.36056
head 3.70356 -3.37618 1.76384
rclavicle 2.18663e-014 -5.56597e-015
rhumerus -39.8879 5.696 -62.2882
rradius 41.3237
rwrist 4.79289
rhand -22.2086 0.268449
rfingers 7.12502
rthumb 4.20733 -29.6697
lclavicle 2.18663e-014 -5.56597e-015
lhumerus -11.4403 -13.7594 78.1992
lradius 51.6808
lwrist -0.244671
lhand -23.2803 -16.4762
lfingers 7.12502
lthumb 3.17237 13.4799
rfemur -59.6514 -10.8788 18.6961
rtibia 67.0649
rfoot -17.9362 -14.3352
rtoes -31.7024
lfemur -32.7527 9.36886 -20.6912
ltibia 88.9237
lfoot -2.94748 -16.7284
ltoes -16.0269
80
root 4.23243 23.6246 7.67636 -180.247 -24.1513 186.239
lowerback 23.6175 -0.527697 1.03099
upperback 4.6237 -0.931313 4.47783
thorax -7.99951 -0.806306 4.67261
lowerneck -9.01293 -5.6343 -7.2872
upperneck 6.14321 -6.94724 3.60295
head 3.67405 -3.44725 1.84513
rclavicle 1.72943e-014 -3.57812e-015
rhumerus -38.8954 4.86516 -62.1134
rradius 41.5315
rwrist 4.44365
rhand -22.6118 -0.0857075
rfingers 7.12502
rthumb 3.81798 -30.0313
lclavicle 1.72943e-014 -3.57812e-015
lhumerus -12.0306 -12.346 78.4249
lradius 49.927
lwrist 0.62232
lhand -22.7481 -16.1947
lfingers 7.12502
lthumb 3.6864 13.7532
rfemur -58.3983 -10.3742 19.4139
rtibia 64.5714
rfoot -17.4758 -14.7915
rtoes -31.2608
lfemur -34.9855 10.5417 -20.2839
ltibia 91.4282
lfoot -4.65019 -17.0378
ltoes -16.3954
81
root 4.23345 23.7331 7.2776 -180.481 -24.4091 186.892
lowerback 23.8737 -0.539243 1.41308
upperback 4.70558 -0.869143 4.49752
thorax -8.04925 -0.79559 4.46432
lowerneck -8.78229 -5.73342 -7.35018
upperneck 6.1032 -7.10944 3.87157
head 3.64541 -3.51782 1.93208
rclavicle -2.16675e-014 1.70955e-014
rhumerus -38.1239 4.44391 -62.0341
rradius 42.1051
rwrist 3.64289
rhand -22.996 -0.441954
rfingers 7.12502
rthumb 3.44696 -30.3938
lclavicle -2.16675e-014 1.70955e-014
lhumerus -12.7177 -11.0459 78.4706
lradius 48.3377
lwrist 0.640816
lhand -22.4111 -15.9452
lfingers 7.12502
lthumb 4.01175 13.9968
rfemur -57.2927 -9.9943 20.0794
rtibia 62.2949
rfoot -17.0671 -15.1489
rtoes -30.7892
lfemur -37.2741 11.5363 -20.0557
ltibia 93.5261
lfoot -6.08036 -17.1505
ltoes -16.4803
